<svg xmlns="http://www.w3.org/2000/svg" viewBox="0 0 1440 1440"><g transform="matrix(1.333333 0 0 -1.333333 0 1440)"><path d="M0 0h1080v1080H0z" fill="#222220"/><g transform="matrix(1.390242 0 0 1.390242 -221.19255 -357.90882)" fill="#f4bc20"><path d="M551.273 869.737l37.665-62.592 1.698 1.884 10.205 11.307 4.883 5.411-37.662 62.586-16.788 27.9c-1.702 2.828-5.802 2.827-7.503-.001l-16.782-27.899-23.588-39.197h27.971l12.399 20.601c1.701 2.828 5.801 2.827 7.502 0M663.29 730.08l-1.192 1.979-5.575 9.267-17.204-7v35.594 57.292l-20.677-22.93-10.212-11.315v-18.218-44.739l-26.512-10.792v49.935l-42.731-.596v-74.975l-9.458-3.87-3.843-1.568v14.465h-14.013v114.117 8.438h-22.896-23.108v-38.402-46.491-21.129h-4.442v17.253h2.107-13.671v-17.253h-3.404v-11.129-2.884h-1.733-9.766v30.266 43.045l-17.568 16.664-17.649-16.664V676.871l-3.761-6.247-7.472-12.417-6.079-10.105c-.836-1.389-.836-3.126 0-4.514l2.764-4.592 3.315-5.507.61-1.013 10.492-17.451 2.014-3.343 267.41 108.851z"/><path d="M634.682 514.058l-10.424-17.328v-.007l-.021-.007-10.205-16.951-45.97-76.4-16.768-27.867c-1.702-2.827-5.801-2.827-7.502 0l-16.782 27.888-31.451 52.264-12.506 20.794-65.729 109.233 36.92 15.118v17.324l23.14 9.419v-38.664h10.436v51.2l23.245-16.643V604.32h17.958v-60.488h10.561v49.324h7.938v39.457h17.513v7.096h17.743v-40.69h14.906v78.072h39.744l.103-71.385h24.875l22.26 37.92c.821 1.366.821 3.073 0 4.438l-9.938 16.513-.11.185-13.218-5.404v25.677l.849.343 22.444 9.136 12.513-20.787 9.335-15.519 6.08-10.105a4.38 4.38 0 0 0-.001-4.515l-6.079-10.098-2.13-3.541-23.971-39.833-26.56-44.135z"/><path d="M624.257 496.723l-10.205-16.951-.021-.007 10.205 16.951z"/></g></g></svg>